<svg width="24" height="21" viewBox="0 0 24 21" fill="none" xmlns="http://www.w3.org/2000/svg">
<path d="M11.5631 20.8956L11.5545 20.8921L11.5274 20.8781C11.369 20.7955 11.2118 20.7107 11.056 20.6238C9.18254 19.5685 7.43172 18.3288 5.83262 16.9253C3.00062 14.4205 0 10.7034 0 6.12524C0 2.70915 3.03262 8.27786e-05 6.69292 8.27786e-05C7.71046 -0.00464167 8.71604 0.208152 9.63486 0.622638C10.5537 1.03712 11.3621 1.64264 12 2.39414C12.638 1.64248 13.4467 1.03688 14.3657 0.622384C15.2847 0.207892 16.2906 -0.00481735 17.3083 8.27786e-05C20.9674 8.27786e-05 24 2.70915 24 6.12524C24 10.7045 20.9994 14.4216 18.1674 16.9242C16.5683 18.3277 14.8175 19.5674 12.944 20.6226C12.7882 20.7099 12.631 20.7951 12.4726 20.8781L12.4455 20.8921L12.4369 20.8968L12.4332 20.898C12.2998 20.965 12.151 21 12 21C11.849 21 11.7002 20.965 11.5668 20.898L11.5631 20.8956Z" fill="white"/>
</svg>
